<svg width="128" height="128" viewBox="0 0 128 128" fill="none" xmlns="http://www.w3.org/2000/svg">
<circle cx="64" cy="64" r="48" fill="#ED4B00"/>
<path fill-rule="evenodd" clip-rule="evenodd" d="M88.4576 46.6433C88.899 46.0773 89.2863 45.56 89.6953 45.0589C89.8849 44.8233 89.8686 44.6445 89.6844 44.3981C87.9105 42.0662 87.7426 39.477 88.7636 36.85C89.5301 34.8729 91.2255 33.9466 93.2974 33.7489C94.5892 33.627 95.8567 33.7598 97.0321 34.3881C98.5759 35.2141 99.4751 36.4735 99.7676 38.2123C100 39.5989 99.9571 40.9531 99.5644 42.2964C98.8684 44.6743 97.1594 45.9066 94.8167 46.2181C92.8721 46.4781 90.9005 46.5106 88.9396 46.6433C88.788 46.6541 88.6336 46.6433 88.4576 46.6433Z" fill="#F2F3F4"/>
<path fill-rule="evenodd" clip-rule="evenodd" d="M83.6471 35.9941H71.9308L62.6548 57.1462H49.541V36.0862H39.0625V90.5833H49.5437V67.6248H68.0254C69.5866 67.6247 71.1153 67.1785 72.4314 66.3388C73.7475 65.4992 74.7964 64.3009 75.4544 62.8852V90.5833H85.9356V67.6248C85.9358 64.977 84.9339 62.4273 83.1313 60.488C81.3286 58.5487 78.8588 57.3635 76.2181 57.1706V57.1435H70.4629C71.8496 56.6698 73.1239 55.9155 74.2064 54.9276C75.2888 53.9398 76.1561 52.7396 76.7544 51.4018L83.6471 35.9941Z" fill="#F2F3F4"/>
</svg>

